<svg xmlns="http://www.w3.org/2000/svg"  viewBox="0 0 135 135" width="67px" height="67px"><g id="Quiz"><path fill="#f3fcff" d="M126.3463211,119.2322388l-46.7423935,7.2135468H37.760952L25.8003178,48.9136429l-3.7451019-24.2852325 c-0.2162857-1.4025078,0.7453671-2.7147884,2.1478825-2.9310226l85.081955-13.1175928 c1.4024734-0.2162275,2.7146912,0.7454062,2.9309235,2.1478748l16.2778778,105.5736771 C128.7100677,117.7036896,127.7486343,119.015831,126.3463211,119.2322388z"/><path fill="#fff" d="M120.8781662,17.0594387v106.8199463c0,1.4200439-1.1400146,2.5699463-2.5700073,2.5699463H32.2281456 c-1.4199829,0-2.5700073-1.1499023-2.5700073-2.5699463V17.0594387c0-1.4200449,1.1500244-2.5700693,2.5700073-2.5700693 h86.0800171C119.7381516,14.4893694,120.8781662,15.6393938,120.8781662,17.0594387z"/><path fill="#f3fcff" d="M120.8816223,17.0571423v106.8234024c0,1.4190521-1.1503677,2.5694199-2.5694199,2.5694199H32.2238617 c-1.4190502,0-2.569418-1.1503677-2.569418-2.5694199v-1.6828842h34.7128525 c28.8634796,0,52.2619476-23.398468,52.2619476-52.2619476V14.4877253h1.6829605 C119.7312546,14.4877253,120.8816223,15.638092,120.8816223,17.0571423z"/><path d="M120.8781662,115.9693527v7.9100342c0,1.4200439-1.1400146,2.5699463-2.5700073,2.5699463H63.6181602 l-8.9000244-3.9899902l9.7800255-4.3898926l5.8099976-2.5900879h48.0199585 C119.2281418,115.4793625,120.0881271,115.6494064,120.8781662,115.9693527z" opacity=".05"/><path d="M48.088131,106.1494064c0,8.7000732-4.789978,16.2999268-11.8800049,20.2999268h-3.9799805 c-1.4199829,0-2.5700073-1.1499023-2.5700073-2.5699463V69.5694504 c3.4299927,1.7700195,5.7800293,5.3499756,5.7800293,9.4699707c0,2.2099609-0.6800537,4.0700684-1.9400024,5.4899902 c0.8999634,0.3599854,1.7699585,0.7800293,2.6199951,1.25C43.4981651,89.8994064,48.088131,97.6993332,48.088131,106.1494064z" opacity=".05"/><path fill="#ff4b3a" d="M57.9616508,68.6186523V80.986908c0,1.4865723-1.2051048,2.6916733-2.6916771,2.6916733H42.901722 c-1.4865685,0-2.6916733-1.205101-2.6916733-2.6916733V68.6186523c0-1.4865723,1.2051048-2.6916733,2.6916733-2.6916733 h12.3682518C56.756546,65.9269791,57.9616508,67.1320801,57.9616508,68.6186523z"/><path fill="#384b7d" d="M57.9616508,78.2906876v2.6916733c0,1.4939423-1.2112885,2.6916733-2.6916771,2.6916733H42.901722 c-1.4803886,0-2.6916733-1.197731-2.6916733-2.6916733v-2.6916733c0,1.4939423,1.2112846,2.6916733,2.6916733,2.6916733 h12.3682518C56.7503624,80.9823608,57.9616508,79.7846298,57.9616508,78.2906876z" opacity=".2"/><path fill="#fff" d="M47.0199852,73.3111496c0,1.9783401-1.0631828,3.579895-2.3686905,3.579895 c-1.3054237,0-2.3686867-1.6015549-2.3686867-3.579895c0-1.9649506,1.0632629-3.5665054,2.3686867-3.5665054 C45.9568024,69.7446442,47.0199852,71.346199,47.0199852,73.3111496z" opacity=".5"/><g><path fill="#ffe93e" d="M57.9616508,96.2212296v12.3682556c0,1.4865646-1.2051048,2.6916733-2.6916771,2.6916733H42.901722 c-1.4865685,0-2.6916733-1.2051086-2.6916733-2.6916733V96.2212296c0-1.4865723,1.2051048-2.6916733,2.6916733-2.6916733 h12.3682518C56.756546,93.5295563,57.9616508,94.7346573,57.9616508,96.2212296z"/><path fill="#384b7d" d="M57.9616508,105.8932571v2.6916809c0,1.4939423-1.2112885,2.6916733-2.6916771,2.6916733H42.901722 c-1.4803886,0-2.6916733-1.197731-2.6916733-2.6916733v-2.6916809c0,1.4939423,1.2112846,2.6916809,2.6916733,2.6916809 h12.3682518C56.7503624,108.584938,57.9616508,107.3871994,57.9616508,105.8932571z" opacity=".2"/><path fill="#fff" d="M47.0199852,100.9137268c0,1.9783401-1.0631828,3.579895-2.3686905,3.579895 c-1.3054237,0-2.3686867-1.6015549-2.3686867-3.579895c0-1.9649506,1.0632629-3.5665054,2.3686867-3.5665054 C45.9568024,97.3472214,47.0199852,98.9487762,47.0199852,100.9137268z" opacity=".5"/></g><g><path fill="#00ffc1" d="M57.9616508,41.0160789v12.3682518c0,1.4865685-1.2051048,2.6916733-2.6916771,2.6916733H42.901722 c-1.4865685,0-2.6916733-1.2051048-2.6916733-2.6916733V41.0160789c0-1.4865723,1.2051048-2.6916771,2.6916733-2.6916771 h12.3682518C56.756546,38.3244019,57.9616508,39.5295067,57.9616508,41.0160789z"/><path fill="#384b7d" d="M57.9616508,50.6881104v2.6916733c0,1.4939423-1.2112885,2.6916771-2.6916771,2.6916771H42.901722 c-1.4803886,0-2.6916733-1.1977348-2.6916733-2.6916771v-2.6916733c0,1.4939423,1.2112846,2.6916733,2.6916733,2.6916733 h12.3682518C56.7503624,53.3797836,57.9616508,52.1820526,57.9616508,50.6881104z" opacity=".2"/><path fill="#fff" d="M47.0199852,45.7085762c0,1.9783401-1.0631828,3.5798912-2.3686905,3.5798912 c-1.3054237,0-2.3686867-1.6015511-2.3686867-3.5798912c0-1.9649544,1.0632629-3.5665054,2.3686867-3.5665054 C45.9568024,42.1420708,47.0199852,43.7436218,47.0199852,45.7085762z" opacity=".5"/></g><g><path fill="#00c5ea" d="M24.7909412,84.5335236c-1.8916016,0-7.6464844,0-7.6464844-5.4941406 c0-4.2158203,3.4306641-7.6455078,7.6464844-7.6455078s7.6464863,3.4296875,7.6464863,7.6455078 C32.4374275,84.5335236,26.6825428,84.5335236,24.7909412,84.5335236z M24.7909412,73.6291351 c-2.9530048,0-5.3557968,2.4018631-5.3557968,5.3548737c0,1.7210388,0.6484013,3.3142548,5.3557968,3.3142548 s5.3557968-1.5932159,5.3557968-3.3142548C30.1467381,76.0309982,27.743948,73.6291351,24.7909412,73.6291351z"/><path fill="#00c5ea" d="M28.1251202,84.6803284v1.9599762h-6.6686668v-1.9599762 c0-0.34655,0.0478497-0.6812134,0.1434059-0.991951c0.4302902-1.3623581,1.6970901-2.3543091,3.1909637-2.3543091 c0.9201756,0,1.7567596,0.3704758,2.3543072,0.9799881c0.2629604,0.2509232,0.4780693,0.5616608,0.6334381,0.8963242 c0.0836658,0.1553726,0.1434059,0.3107376,0.203146,0.4779968 C28.077343,83.999115,28.1251202,84.3337784,28.1251202,84.6803284z"/><path fill="#384b7d" d="M28.1251202,84.6803284v1.9599762h-6.6686668v-1.9599762 c0-0.34655,0.0478497-0.6812134,0.1434059-0.991951c1.0397282-0.155365,2.1153469-0.2270737,3.1909637-0.2270737 c1.0755444,0,2.1391983,0.0717087,3.1908913,0.2270737C28.077343,83.999115,28.1251202,84.3337784,28.1251202,84.6803284z" opacity=".1"/><path fill="#00c5ea" d="M45.0896912,106.1470337c0,11.2177811-9.0959091,20.2988358-20.2988415,20.2988358 c-4.7037277,0-9.0217371-1.5877075-12.4642429-4.2585907c-4.7630501-3.7244415-7.8345976-9.5261917-7.8345976-16.0402451 c0-11.2029343,9.0810575-20.2988434,20.2988396-20.2988434c3.5908546,0,6.9591866,0.9348221,9.8675327,2.5521545 C40.8756523,91.872551,45.0896912,98.5201035,45.0896912,106.1470337z"/><path fill="#fff" d="M40.0143929,92.7326202c-1.0900269-0.9599609-2.2800293-1.8099365-3.5499878-2.5198975 c-2.9000244-1.6201172-6.2700214-2.5500488-9.8600483-2.5500488c-11.2199707,0-20.2999878,9.0899658-20.2999878,20.3000488 c0,5.1599121,1.9299922,9.8798828,5.1099849,13.4599609c-4.2399898-3.7199707-6.9199824-9.1900635-6.9199824-15.2800293 c0-11.1999512,9.0800171-20.2900391,20.2999878-20.2900391c3.5900269,0,6.960022,0.9300537,9.8600483,2.5500488 C36.6843758,89.5326691,38.4943733,91.0026398,40.0143929,92.7326202z" opacity=".5"/><path d="M45.0949059,106.143486c0,11.2259216-9.1054535,20.3064804-20.3064041,20.3064804 c-4.7024384,0-9.0182085-1.596611-12.4607601-4.2659073c-0.9604645-0.7483673-1.8460922-1.57164-2.6443214-2.4821625 c0.3367252,0.3118286,0.6735277,0.5986938,1.035224,0.8731384c3.4426279,2.6692963,7.758399,4.265831,12.4607611,4.265831 c11.2010269,0,20.3064804-9.0804825,20.3064804-20.3064041c0-5.1889114-1.9583092-9.9287338-5.1764259-13.5085449 C42.4755554,94.7304306,45.0949059,100.1313705,45.0949059,106.143486z" opacity=".05"/><path fill="#d4f4ff" d="M40.6381874,106.1470337c0,8.7694168-7.0926781,15.8473358-15.8473377,15.8473358 c-5.2527409,0-9.8822956-2.5373917-12.7757902-6.4398804c-1.9289665-2.6411743-3.0715475-5.8759232-3.0715475-9.4074554 c0-8.7546616,7.0779171-15.8473434,15.8473377-15.8473434c3.5166798,0,6.7811337,1.1573486,9.4075489,3.0863113 C38.1007996,96.2794952,40.6381874,100.90905,40.6381874,106.1470337z"/><path fill="#d4f4ff" d="M24.7905273,122.4945831c-5.2441406,0-10.046875-2.4208984-13.1767578-6.6420898 c-2.0742188-2.840332-3.1699219-6.1958008-3.1699219-9.7055664c0-9.0136719,7.3330078-16.347168,16.3466797-16.347168 c3.5126953,0,6.8681641,1.1005859,9.7041016,3.1835938c4.2226563,3.1308594,6.6435547,7.9282227,6.6435547,13.1635742 C41.1381836,115.161087,33.8041992,122.4945831,24.7905273,122.4945831z M24.7905273,90.7997589 c-8.4619141,0-15.3466797,6.8847656-15.3466797,15.347168c0,3.2963867,1.0283203,6.4477539,2.9746094,9.112793 c2.9375,3.9614258,7.4482422,6.2348633,12.3720703,6.2348633c8.4628906,0,15.3476563-6.8847656,15.3476563-15.3476563 c0-4.9150391-2.2734375-9.4199219-6.2373047-12.3588867C31.2397461,91.8334503,28.0883789,90.7997589,24.7905273,90.7997589z"/><path fill="#fff" d="M37.2698555,102.7787018c0,8.7695084-7.09268,15.8473358-15.8473377,15.8473358 c-3.5166798,0-6.7811337-1.1424942-9.4074583-3.0715485c-1.9289665-2.6411743-3.0715475-5.8759232-3.0715475-9.4074554 c0-8.7546616,7.0779171-15.8473434,15.8473377-15.8473434c3.5166798,0,6.7811337,1.1573486,9.4075489,3.0863113 C36.1273651,96.0124207,37.2698555,99.2620163,37.2698555,102.7787018z"/><path fill="#a4bcd1" d="M26.6419296,105.8790436c0,1.0167618-0.8343182,1.838028-1.8510799,1.838028 c-1.01684,0-1.8510799-0.8212662-1.8510799-1.838028c0-1.029892,0.83424-1.8511581,1.8510799-1.8511581 C25.8076115,104.0278854,26.6419296,104.8491516,26.6419296,105.8790436z"/></g><g><polygon fill="#ffcb8f" points="62.0455742,122.4610977 65.7309418,124.112793 70.9443665,126.449852 70.9443054,118.4837036 65.7309189,120.809494"/><rect width="45.184" height="7.966" x="70.949" y="118.484" fill="#e98a42"/><rect width="45.183" height="2.335" x="70.954" y="124.111" fill="#e98a42" opacity=".5"/><rect width="3.281" height="7.966" x="112.853" y="118.484" fill="#f3fcff"/><path fill="#76819f" d="M122.3095322,122.4668884v0.0000153c0.0000153,2.199791-1.7832642,3.9830704-3.9830627,3.9830627 l-2.1928406-0.0000076l-0.000061-7.966156h2.1928406C120.5262146,118.4838104,122.3095169,120.2670975,122.3095322,122.4668884z"/><path fill="#fff" d="M116.3488312,126.4499588l1.9807053,0.0000076c2.1945648,0.0000076,3.980011-1.7854462,3.9799957-3.9800034 c-0.0000153-2.2038574-1.7854919-3.9892654-3.9800568-3.9892731h-1.9807053 c2.2038727,0.0000076,3.9893494,1.785408,3.9893646,3.9892731 C120.33815,124.6645126,118.5527039,126.4499664,116.3488312,126.4499588z" opacity=".3"/><path fill="#384b7d" d="M4.9936523,125.9501495H4.5083008c-0.2763672,0-0.5,0.2236328-0.5,0.5s0.2236328,0.5,0.5,0.5h0.4853516 c0.2763672,0,0.5-0.2236328,0.5-0.5S5.2700195,125.9501495,4.9936523,125.9501495z"/><path fill="#384b7d" d="M130.5083008,125.9501495h-0.6601563c-0.2763672,0-0.5,0.2236328-0.5,0.5s0.2236328,0.5,0.5,0.5h0.6601563 c0.2763672,0,0.5-0.2236328,0.5-0.5S130.784668,125.9501495,130.5083008,125.9501495z"/><path fill="#384b7d" d="M121.3901367,66.9520416V17.0600109c0-1.692872-1.3769531-3.0698252-3.0703125-3.0698252h-5.0907593 l-0.5147095-3.3378906c-0.2626953-1.6767578-1.84375-2.82373-3.5107422-2.5664063l-38.2813721,5.9042969H32.2299805 c-1.6933594,0-3.0703125,1.3769531-3.0703125,3.0698252v3.3708496l-5.0341797,0.7746582 c-0.8066406,0.1210938-1.5166016,0.5512695-2.0009766,1.2114258c-0.4882813,0.6640625-0.6855469,1.4775391-0.5585938,2.2890625 l7.2883911,47.2868042c-1.2349243-0.7158203-2.6160889-1.1027222-4.0637817-1.1027222 c-4.4941406,0-8.1503906,3.65625-8.1503906,8.1499023c0,2.8603516,1.5011597,4.7628174,4.3175659,5.5524292 c-0.0007324,0.0292969-0.0079956,0.0583496-0.0079956,0.0877075v1.0383301 C11.3117676,87.527298,3.9916992,95.9916534,3.9916992,106.1469269c0,6.4550781,2.9257813,12.4448242,8.0283203,16.4355469 c1.9493408,1.5125732,4.1097412,2.6350708,6.4020996,3.3676758H6.9936523c-0.2763672,0-0.5,0.2236328-0.5,0.5 s0.2236328,0.5,0.5,0.5c37.0108528,0.0000076,62.071167,0.000061,120.3544922,0c0.2763672,0,0.5-0.2236328,0.5-0.5 s-0.2236328-0.5-0.5-0.5h-6.2344971c1.0250244-0.8223267,1.6954346-2.0698853,1.6954346-3.4833984 c0-0.7614136-0.2086792-1.4682007-0.5449829-2.0969238l4.1602173-0.6452637 c1.673996-0.2513046,2.823761-1.825119,2.5595703-3.5009766L121.3901367,66.9520416z M109.3569336,9.0741701 c1.1279297-0.1826172,2.1923828,0.6015625,2.3691406,1.7319336l0.4912109,3.184082H77.4824219L109.3569336,9.0741701z M22.9301758,23.0087414c0.3261719-0.4438477,0.8027344-0.7329102,1.3457031-0.8144531l4.8837891-0.7516479v45.9668579 l-6.6054688-42.8572998C22.4682617,24.0043468,22.6020508,23.4564953,22.9301758,23.0087414z M17.6401367,79.0399933 c0-3.9423828,3.2080078-7.1499023,7.1503906-7.1499023c1.6132813,0,3.1425781,0.5302734,4.4384766,1.5473633 c0.0339108,0.0263596,0.0870857,0.0738678,0.1132813,0.0986328c1.6503906,1.359375,2.5976563,3.3652344,2.5976563,5.5039063 c0,1.4321289-0.4257813,2.5693359-1.2646484,3.3774414c-0.3359375,0.3193359-0.7490234,0.5952148-1.2324219,0.8217773 c-0.2991943,0.1436157-0.6322632,0.2610474-0.9736328,0.3638916c-0.1166992-0.4115601-0.3010254-0.7999268-0.5535278-1.1516724 c0.9494629-0.2602539,1.6367188-0.6723633,2.0823975-1.2477417c0.0105591-0.0098267,0.0194702-0.0202026,0.0291138-0.0308838 c0.0108643-0.0144653,0.0271606-0.0253296,0.0377197-0.0400391c0.0214844-0.0297241,0.031311-0.0618896,0.0512695-0.092041 c0.0013428-0.0029907,0.003418-0.0053101,0.0046387-0.0083008c0.4620972-0.7026367,0.5290527-1.5011597,0.5290527-2.0524902 c0-0.8508911-0.1790161-1.6633911-0.5286255-2.4100952c-0.001791-0.0046158-0.0063362-0.0156708-0.0065308-0.0161743 c-0.9443359-2.0800781-3.0341797-3.4238281-5.3242188-3.4238281c-3.2255859,0-5.8505859,2.6245117-5.8505859,5.8500977 c0,1.3004761,0.3391724,2.822876,2.7385254,3.4776611c-0.2543335,0.352478-0.446167,0.7373047-0.5615845,1.1439819 C18.7897339,82.9181061,17.6401367,81.4289093,17.6401367,79.0399933z M28.6303711,85.707962V84.68013 c0-0.02948-0.0063477-0.0531006-0.0070801-0.0823975c0.1815796-0.0512695,0.362915-0.1015625,0.536377-0.1637573v1.3865356 C28.9832153,85.7827301,28.8078003,85.7411652,28.6303711,85.707962z M22.510376,81.6156158 c-2.3512573-0.4257813-2.5704346-1.5306396-2.5704346-2.6356812c0-2.6743164,2.1757813-4.8500977,4.8505859-4.8500977 c1.8657227,0,3.5651855,1.0782471,4.3691406,2.7559814v3.7584839c-0.3938599,0.4686279-1.0787964,0.7888184-2.0820923,0.972168 C25.7479248,80.6380768,23.8082886,80.6458893,22.510376,81.6156158z M21.949707,84.68013 c0-3.7741776,5.6806641-3.6840057,5.6806641,0v0.867981c-0.9389648-0.1291504-1.8874512-0.2000122-2.8398438-0.2000122 c-0.9660034,0-1.9094238,0.0892334-2.8408203,0.2173462V84.68013z M4.9916992,106.1469269 c0-10.9169922,8.8818359-19.7988281,19.7988281-19.7988281c3.3681641,0,6.6962891,0.8608398,9.6240234,2.4887695 c4.8994751,2.7363892,8.3394775,7.3817139,9.6175537,12.6983643c-0.0261841,0.0176392-0.0552979,0.0289307-0.0784912,0.052124 c-0.1953125,0.1953125-0.1953125,0.5117188,0,0.7070313l0.3048096,0.3048096 c2.2414818,12.2636261-7.2507858,23.3465576-19.4678955,23.3465576c-4.4511719,0-8.6552734-1.4360352-12.15625-4.1523438 C7.777832,117.9950714,4.9916992,112.2919464,4.9916992,106.1469269z M57.4604492,96.6289215l-8.8789063,8.8793335 l-3.3913574-3.3913574c-0.5593262-2.8234863-1.6983643-5.4835815-3.3207397-7.8230591 c0.3173218-0.1707764,0.6657104-0.2640991,1.0304565-0.2640991h12.3701172c1.2080078,0,2.1904297,0.9824219,2.1904297,2.1904297 V96.6289215z M57.4604492,98.043045v10.5467529c0,1.2075195-0.9824219,2.1899414-2.1904297,2.1899414H45.0510254 c0.3412476-1.4922485,0.5383301-3.0385742,0.5383301-4.6328125c0-0.7952881-0.055542-1.5822144-0.1448975-2.3616943 l2.7835693,2.7835693c0.1953239,0.1953201,0.5118332,0.1951981,0.7070313,0L57.4604492,98.043045z M31.5053711,125.8123322 c6.4262085-2.2009277,11.4325562-7.4553223,13.2879028-14.0325928h10.4767456 c1.7587891,0,3.1904297-1.4311523,3.1904297-3.1899414V97.042984l1.2373047-1.2373657 c0.1953125-0.1953125,0.1953125-0.5117188,0-0.7070313s-0.5117188-0.1953125-0.7070313,0l-0.5845947,0.5845947 c-0.2572021-1.5031738-1.5611572-2.6534424-3.1361084-2.6534424H42.8999023 c-0.5705566,0-1.1309204,0.1593018-1.6233521,0.4501953c-1.7012939-2.2171021-3.8533936-4.1083984-6.3746948-5.5166016 c-1.4957886-0.831665-3.0917358-1.468811-4.7421875-1.9080811V83.980423 c0.4512939-0.241272,0.8644409-0.5155029,1.2070313-0.8408203c1.0439453-1.0058594,1.5732422-2.3852539,1.5732422-4.0996094 c0-2.3704224-1.0270386-4.5922852-2.7802734-6.1087646V17.0600109c0-1.1411142,0.9287109-2.0698252,2.0703125-2.0698252 h86.0898438c1.1416016,0,2.0703125,0.9287109,2.0703125,2.0698252v101.4508057 c-0.6205444-0.3253784-1.3155518-0.5269775-2.0634766-0.5269775c-21.5691528,0-25.332077,0-47.3779297,0 c-0.0713501,0-0.1384888,0.0158691-0.1998901,0.0427246c-0.0013428,0.0005493-0.0028687,0.0001221-0.0042114,0.0007324 l-8.8994141,3.9804688c-0.1796875,0.0805664-0.2958984,0.2592773-0.2958984,0.456543 c0,0.1967773,0.1162109,0.3759766,0.2958984,0.456543l6.7645264,3.0292969H32.2299805 C31.9785767,125.9501495,31.7347412,125.8980255,31.5053711,125.8123322z M65.8884277,121.2949982l4.5603027-2.0396729 v6.4223633l-4.5626831-2.0429077C66.1423569,122.7857895,66.1435013,122.14534,65.8884277,121.2949982z M112.3530273,118.9838409v6.9662476l-40.9042969-0.0004272v-6.9658203H112.3530273z M113.3530273,125.9501495v-6.9663086 h2.2802734v6.9663086H113.3530273z M118.3266602,125.9501495h-1.6933594v-6.9663086h1.6933594 c1.9199219,0,3.4824219,1.5625,3.4824219,3.4829102C121.809082,124.3876495,120.246582,125.9501495,118.3266602,125.9501495z M126.2739258,118.7357941l-4.6483154,0.7211304c-0.0767212-0.0840454-0.1525879-0.1668701-0.2354736-0.244873V73.516983 l6.6054688,42.8604126C128.1735687,117.4991913,127.4085388,118.5657043,126.2739258,118.7357941z"/><path fill="#384b7d" d="M58.9907227,67.496048l-0.5837402,0.5838013 c-0.2578125-1.5027466-1.5617065-2.6526489-3.1369629-2.6526489H42.9018555 c-1.7597656,0-3.1914063,1.4316406-3.1914063,3.1914063v12.3681641c0,1.7602539,1.4316406,3.1918945,3.1914063,3.1918945 h12.3681641c1.7597656,0,3.1914063-1.4316406,3.1914063-3.1918945V69.4394684l1.2363281-1.2363892 c0.1953125-0.1953125,0.1953125-0.5117188,0-0.7070313S59.1860352,67.3007355,58.9907227,67.496048z M57.4614258,80.9867706 c0,1.2084961-0.9833984,2.1918945-2.1914063,2.1918945H42.9018555c-1.2080078,0-2.1914063-0.9833984-2.1914063-2.1918945 V68.6186066c0-1.2084961,0.9833984-2.1914063,2.1914063-2.1914063h12.3681641 c1.2080078,0,2.1914063,0.9829102,2.1914063,2.1914063v0.4067993l-8.8798828,8.8803101l-3.9208984-3.9208984 c-0.1953125-0.1953125-0.5117188-0.1953125-0.7070313,0s-0.1953125,0.5117188,0,0.7070313l4.2744141,4.2744141 c0.1953239,0.1953201,0.5118332,0.1951981,0.7070313,0l8.5263672-8.5267334V80.9867706z"/><path fill="#384b7d" d="M110.3334961,70.6757355H64.7504883c-0.2763672,0-0.5,0.2236328-0.5,0.5s0.2236328,0.5,0.5,0.5h45.5830078 c0.2763672,0,0.5-0.2236328,0.5-0.5S110.6098633,70.6757355,110.3334961,70.6757355z"/><path fill="#384b7d" d="M64.7504883,78.9296417h36.5996094c0.2763672,0,0.5-0.2236328,0.5-0.5s-0.2236328-0.5-0.5-0.5H64.7504883 c-0.2763672,0-0.5,0.2236328-0.5,0.5S64.4741211,78.9296417,64.7504883,78.9296417z"/><path fill="#384b7d" d="M110.3334961,98.2782745H64.7504883c-0.2763672,0-0.5,0.2236328-0.5,0.5s0.2236328,0.5,0.5,0.5h45.5830078 c0.2763672,0,0.5-0.2236328,0.5-0.5S110.6098633,98.2782745,110.3334961,98.2782745z"/><path fill="#384b7d" d="M101.3500977,105.5321808H64.7504883c-0.2763672,0-0.5,0.2236328-0.5,0.5s0.2236328,0.5,0.5,0.5 h36.5996094c0.2763672,0,0.5-0.2236328,0.5-0.5S101.6264648,105.5321808,101.3500977,105.5321808z"/><path fill="#384b7d" d="M58.9907227,39.8935051l-0.5837402,0.5837402 c-0.2578125-1.5032349-1.5616455-2.6530762-3.1369629-2.6530762H42.9018555 c-1.7597656,0-3.1914063,1.4316406-3.1914063,3.1918945v12.3681641c0,1.7602539,1.4316406,3.1918945,3.1914063,3.1918945 h12.3681641c1.7597656,0,3.1914063-1.4316406,3.1914063-3.1918945V41.8368645l1.2363281-1.2363281 c0.1953125-0.1953125,0.1953125-0.5117188,0-0.7070313S59.1860352,39.6981926,58.9907227,39.8935051z M57.4614258,53.3842278 c0,1.2084961-0.9833984,2.1918945-2.1914063,2.1918945H42.9018555c-1.2080078,0-2.1914063-0.9833984-2.1914063-2.1918945 V41.0160637c0-1.2084961,0.9833984-2.1918945,2.1914063-2.1918945h12.3681641 c1.2080078,0,2.1914063,0.9833984,2.1914063,2.1918945v0.4067383l-8.8798828,8.8798828l-3.9208984-3.9204102 c-0.1953125-0.1953125-0.5117188-0.1953125-0.7070313,0s-0.1953125,0.5117188,0,0.7070313l4.2744141,4.2739258 c0.0976563,0.0976563,0.2255859,0.1464844,0.3535156,0.1464844s0.2558594-0.0488281,0.3535156-0.1464844l8.5263672-8.5263672 V53.3842278z"/><path fill="#384b7d" d="M64.2504883,43.5731926c0,0.2763672,0.2236328,0.5,0.5,0.5h45.5830078c0.2763672,0,0.5-0.2236328,0.5-0.5 s-0.2236328-0.5-0.5-0.5H64.7504883C64.4741211,43.0731926,64.2504883,43.2968254,64.2504883,43.5731926z"/><path fill="#384b7d" d="M64.7504883,51.3270988h36.5996094c0.2763672,0,0.5-0.2236328,0.5-0.5s-0.2236328-0.5-0.5-0.5H64.7504883 c-0.2763672,0-0.5,0.2236328-0.5,0.5S64.4741211,51.3270988,64.7504883,51.3270988z"/><path fill="#384b7d" d="M64.0969238,31.0918102c0.6795654,0.3959961,1.4716187,0.5945435,2.374939,0.5945435 c0.300415,0,0.5588379-0.0178833,0.7741699-0.0525513l1.4064941,1.678587 c0.1124268,0.1375732,0.25,0.2069092,0.4138794,0.2069092c0.1544189,0,0.2877808-0.0567017,0.3991699-0.1680908 c0.1123657-0.1123657,0.1638184-0.2415771,0.1554565-0.3875732c0-0.1459961-0.0515137-0.2709961-0.1554565-0.3739624 l-1.135498-1.2520733c0.8266602-0.3445435,1.4736938-0.8928223,1.9421997-1.6459961 c0.4695435-0.7531738,0.7121582-1.6323242,0.7300415-2.6397095c-0.0178833-0.8949585-0.2132568-1.6921997-0.5872192-2.3938599 c-0.375-0.7016602-0.8991089-1.25-1.5745239-1.6459961c-0.6764526-0.3959961-1.465332-0.5935059-2.3687134-0.5935059 c-0.9033203,0-1.6953735,0.1975098-2.374939,0.5935059c-0.6806641,0.3959961-1.204834,0.9421997-1.574585,1.6397095 c-0.3707886,0.6964111-0.5640869,1.4968262-0.5808716,2.4001465c0.0167847,0.9033813,0.210083,1.7037964,0.5808716,2.4012451 C62.8920898,30.1496105,63.4162598,30.6968517,64.0969238,31.0918102z M63.5159912,25.2451916 c0.2668457-0.5335693,0.6513062-0.954834,1.1554565-1.2647095c0.5031738-0.3098145,1.1029663-0.465332,1.800415-0.465332 c0.6880493,0,1.2857056,0.1555176,1.7941284,0.465332c0.5073242,0.3098755,0.8949585,0.7311401,1.1617432,1.2647095 c0.2657471,0.5336304,0.4002075,1.135498,0.4002075,1.8067017c0,0.6712646-0.1344604,1.2741699-0.4002075,1.8078003 c-0.2667847,0.5335693-0.6544189,0.954834-1.1617432,1.2646484c-0.5084229,0.3098755-1.1060791,0.4642944-1.7941284,0.4642944 c-0.6974487,0-1.2972412-0.1544189-1.800415-0.4642944c-0.5041504-0.3098145-0.8886108-0.7310791-1.1554565-1.2646484 c-0.2667847-0.5336304-0.4002075-1.1365356-0.4002075-1.8078003 C63.1157837,26.3806896,63.2492065,25.7788219,63.5159912,25.2451916z"/><path fill="#384b7d" d="M73.6419678,31.3502331c0.3477173,0.2236938,0.7584229,0.3361206,1.2321777,0.3361206 c0.5167847,0,0.9631958-0.1082153,1.3424072-0.3235474c0.3781738-0.2142944,0.7310791-0.5031738,1.0588379-0.864502v0.5294189 c0,0.1638794,0.0577393,0.3035889,0.1743774,0.4191284c0.1155396,0.1165771,0.255249,0.1743774,0.4190674,0.1743774 c0.1628418,0,0.3015137-0.0578003,0.4128418-0.1743774c0.1123657-0.1155396,0.1680298-0.255249,0.1680298-0.4191284v-5.5377808 c0-0.1627808-0.0556641-0.300415-0.1680298-0.4127808c-0.1113281-0.1113892-0.25-0.1680908-0.4128418-0.1680908 c-0.1638184,0-0.3035278,0.0567017-0.4190674,0.1680908c-0.1166382,0.1123657-0.1743774,0.25-0.1743774,0.4127808v3.8728638 c-0.3015137,0.3781738-0.6218872,0.6796265-0.9622192,0.9033813c-0.3392334,0.2237549-0.7247925,0.335083-1.1554565,0.335083 c-0.9464111,0-1.4190674-0.5241699-1.4190674-1.574585v-3.5367432c0-0.1627808-0.0567627-0.300415-0.1680908-0.4127808 c-0.1123657-0.1113892-0.25-0.1680908-0.4127808-0.1680908c-0.1638794,0-0.3035889,0.0567017-0.420166,0.1680908 c-0.1155396,0.1123657-0.1733398,0.25-0.1733398,0.4127808v3.6659546c0,0.465332,0.0913696,0.8907471,0.2772827,1.2783203 C73.0264282,30.8208141,73.2932739,31.1264782,73.6419678,31.3502331z"/><path fill="#384b7d" d="M81.489624,31.4531384c0.1155396-0.1113281,0.1743774-0.2489624,0.1743774-0.4127808v-5.5367432 c0-0.1723022-0.0567017-0.3140869-0.1680908-0.4264526c-0.1123657-0.1113892-0.2542114-0.1680908-0.4264526-0.1680908 c-0.1628418,0-0.300415,0.0588379-0.4127808,0.1743774c-0.1113892,0.1165771-0.1670532,0.2562866-0.1670532,0.420166v5.5367432 c0,0.1638184,0.0556641,0.3014526,0.1670532,0.4127808c0.1123657,0.1124268,0.249939,0.1680908,0.4127808,0.1680908 C81.2333374,31.6212292,81.3730469,31.5655651,81.489624,31.4531384z"/><path fill="#384b7d" d="M81.0442505,23.6317883h0.0777588c0.1806641,0,0.335083-0.0651245,0.4642334-0.1932983 c0.1292114-0.1292114,0.1932983-0.284668,0.1932983-0.465332v-0.0514526c0-0.1806641-0.0640869-0.335083-0.1932983-0.4642944 c-0.1291504-0.1292114-0.2835693-0.1943359-0.4642334-0.1943359h-0.0777588 c-0.1806641,0-0.3361206,0.0651245-0.4642944,0.1943359c-0.1292114,0.1292114-0.1943359,0.2836304-0.1943359,0.4642944 v0.0514526c0,0.1806641,0.0651245,0.3361206,0.1943359,0.465332 C80.7081299,23.5666637,80.8635864,23.6317883,81.0442505,23.6317883z"/><path fill="#384b7d" d="M83.199707,30.8722668c0,0.215332,0.0766602,0.3834229,0.2321167,0.5042114 c0.1544189,0.1207886,0.3487549,0.1806641,0.5808716,0.1806641h4.0272827c0.1544189,0,0.2857056-0.0514526,0.3939209-0.1554565 c0.1071167-0.1029663,0.1607056-0.2321777,0.1607056-0.3865356c0-0.1555176-0.0535889-0.2868042-0.1607056-0.3939209 c-0.1082153-0.1071777-0.239502-0.1618042-0.3939209-0.1618042h-3.3171997l3.6134644-4.2331543 c0.1207886-0.1459961,0.1806641-0.3182373,0.1806641-0.5167847c0-0.2142944-0.0682983-0.3907471-0.2059326-0.5294189 c-0.1375732-0.1365356-0.3182373-0.2058716-0.5419922-0.2058716h-3.9117432 c-0.1544189,0-0.2835693,0.0535889-0.3865356,0.1607056c-0.1029663,0.1082153-0.1554565,0.239502-0.1554565,0.3939209 c0,0.1554565,0.0524902,0.284668,0.1554565,0.3875732c0.1029663,0.1029663,0.2321167,0.1544189,0.3865356,0.1544189h3.2657471 l-3.7174072,4.2730713C83.2679443,30.4983044,83.199707,30.674818,83.199707,30.8722668z"/><path fill="#384b7d" d="M41.1459961,106.1469269c0-9.0180664-7.3369141-16.3544922-16.3554688-16.3544922 c-9.0175781,0-16.3544922,7.3364258-16.3544922,16.3544922s7.3369141,16.3549805,16.3544922,16.3549805 C33.809082,122.5019073,41.1459961,115.1649933,41.1459961,106.1469269z M9.4360352,106.1469269 c0-8.4663086,6.8876953-15.3544922,15.3544922-15.3544922s15.3554688,6.8881836,15.3554688,15.3544922 c0,8.4667969-6.8886719,15.3549805-15.3554688,15.3549805S9.4360352,114.6137238,9.4360352,106.1469269z"/><path fill="#384b7d" d="M24.7905273,95.4477081c0.2763672,0,0.5-0.2236328,0.5-0.5v-1.421875c0-0.2763672-0.2236328-0.5-0.5-0.5 s-0.5,0.2236328-0.5,0.5v1.421875C24.2905273,95.2240753,24.5141602,95.4477081,24.7905273,95.4477081z"/><path fill="#384b7d" d="M25.2905273,118.7680206v-1.421875c0-0.2763672-0.2236328-0.5-0.5-0.5s-0.5,0.2236328-0.5,0.5v1.421875 c0,0.2763672,0.2236328,0.5,0.5,0.5S25.2905273,119.0443878,25.2905273,118.7680206z"/><path fill="#384b7d" d="M16.5180664,98.5814972c0.0976563,0.0976563,0.2255859,0.1464844,0.3535156,0.1464844 s0.2558594-0.0488281,0.3535156-0.1464844c0.1953125-0.1953125,0.1953125-0.5117188,0-0.7070313l-1.0048828-1.0053711 c-0.1953125-0.1953125-0.5117188-0.1953125-0.7070313,0s-0.1953125,0.5117188,0,0.7070313L16.5180664,98.5814972z"/><path fill="#384b7d" d="M33.3618164,115.4252472c0.0976563,0.0976563,0.2255859,0.1464844,0.3535156,0.1464844 s0.2558594-0.0488281,0.3535156-0.1464844c0.1953125-0.1953125,0.1953125-0.5117188,0-0.7070313l-1.0048828-1.0053711 c-0.1953125-0.1953125-0.5117188-0.1953125-0.7070313,0s-0.1953125,0.5117188,0,0.7070313L33.3618164,115.4252472z"/><path fill="#384b7d" d="M13.5913086,105.6469269h-1.421875c-0.2763672,0-0.5,0.2236328-0.5,0.5s0.2236328,0.5,0.5,0.5h1.421875 c0.2763672,0,0.5-0.2236328,0.5-0.5S13.8676758,105.6469269,13.5913086,105.6469269z"/><path fill="#384b7d" d="M35.9907227,106.6469269h1.421875c0.2763672,0,0.5-0.2236328,0.5-0.5s-0.2236328-0.5-0.5-0.5h-1.421875 c-0.2763672,0-0.5,0.2236328-0.5,0.5S35.7143555,106.6469269,35.9907227,106.6469269z"/><path fill="#384b7d" d="M16.519043,113.7123566l-1.0058594,1.0058594c-0.1953125,0.1953125-0.1953125,0.5117188,0,0.7070313 c0.0976563,0.0976563,0.2255859,0.1464844,0.3535156,0.1464844s0.2558479-0.0488281,0.3535156-0.1464844l1.0058594-1.0058594 c0.1953125-0.1953125,0.1953125-0.5117188,0-0.7070313S16.7143555,113.5170441,16.519043,113.7123566z"/><path fill="#384b7d" d="M33.0639648,98.5814972l1.0048828-1.0058594c0.1953125-0.1953125,0.1953125-0.512207,0-0.7070313 c-0.1953125-0.1953125-0.5117188-0.1953125-0.7070313,0l-1.0048828,1.0058594 c-0.1953125,0.1953125-0.1953125,0.512207,0,0.7070313C32.5522423,98.7768021,32.8686485,98.7768097,33.0639648,98.5814972z"/><path fill="#384b7d" d="M24.7905273,108.2172394c1.296875,0,2.3515625-1.0488281,2.3515625-2.3383789 c0-0.6621094-0.2773438-1.258606-0.7192993-1.6863403l3.1323853-5.0285034 c0.1455078-0.234375,0.0742188-0.5424805-0.1601563-0.6884766c-0.2333984-0.1435547-0.5429688-0.0751953-0.6894531,0.1601563 l-3.1363525,5.0349121c-0.2449341-0.0866699-0.5043945-0.1428223-0.7786865-0.1428223 c-1.2958984,0-2.3505859,1.0546875-2.3505859,2.3510742c0,0.6581421,0.2768555,1.2511597,0.7181396,1.6764526 l-0.4622803,0.739563c-0.1464844,0.234375-0.0751953,0.5429688,0.1591797,0.6889648 c0.0820313,0.0517578,0.1738281,0.0761719,0.2646484,0.0761719c0.1660156,0,0.3291016-0.0830078,0.4238281-0.2348633 l0.468811-0.749939C24.2570801,108.1613922,24.5164185,108.2172394,24.7905273,108.2172394z M24.7905273,104.5277863 c0.2564087,0,0.4938354,0.0757446,0.6983643,0.2002563c0.0026855,0.001709,0.0040283,0.0045776,0.0067139,0.0062866 c0.0032959,0.0020142,0.0071411,0.0010376,0.010437,0.0029907c0.3806152,0.2392578,0.6360474,0.65979,0.6360474,1.1415405 c0,0.737793-0.6064453,1.3383789-1.3515625,1.3383789s-1.3505859-0.6005859-1.3505859-1.3383789 C23.4399414,105.1337433,24.0454102,104.5277863,24.7905273,104.5277863z"/></g></g></svg>